<?xml version="1.0" encoding="UTF-8" standalone="no"?>
<!DOCTYPE svg PUBLIC "-//W3C//DTD SVG 1.1//EN"
 "http://www.w3.org/Graphics/SVG/1.1/DTD/svg11.dtd">
<!-- Generated by graphviz version 2.36.0 (20140111.2315)
 -->
<!-- Title: %3 Pages: 1 -->
<svg width="670pt" height="152pt"
 viewBox="0.00 0.00 670.00 152.00" xmlns="http://www.w3.org/2000/svg" xmlns:xlink="http://www.w3.org/1999/xlink">
<g id="graph0" class="graph" transform="scale(1 1) rotate(0) translate(4 148)">
<title>%3</title>
<polygon fill="white" stroke="none" points="-4,4 -4,-148 666,-148 666,4 -4,4"/>
<!-- col0 -->
<g id="node1" class="node"><title>col0</title>
<ellipse fill="none" stroke="none" cx="35" cy="-18" rx="27" ry="18"/>
<text text-anchor="middle" x="35" y="-13.8" font-family="Times,serif" font-size="14.00" fill="#fffffe">col0</text>
</g>
<!-- col1 -->
<g id="node2" class="node"><title>col1</title>
<ellipse fill="none" stroke="none" cx="138" cy="-18" rx="27" ry="18"/>
<text text-anchor="middle" x="138" y="-13.8" font-family="Times,serif" font-size="14.00" fill="#fffffe">col1</text>
</g>
<!-- col0&#45;&gt;col1 -->
<g id="edge3" class="edge"><title>col0&#45;&gt;col1</title>
<path fill="none" stroke="none" d="M62.01,-18C73.6997,-18 87.6994,-18 100.421,-18"/>
<polygon fill="none" stroke="none" points="100.727,-21.5001 110.727,-18 100.727,-14.5001 100.727,-21.5001"/>
</g>
<!-- col2 -->
<g id="node3" class="node"><title>col2</title>
<ellipse fill="none" stroke="none" cx="233" cy="-18" rx="27" ry="18"/>
<text text-anchor="middle" x="233" y="-13.8" font-family="Times,serif" font-size="14.00" fill="#fffffe">col2</text>
</g>
<!-- col1&#45;&gt;col2 -->
<g id="edge4" class="edge"><title>col1&#45;&gt;col2</title>
<path fill="none" stroke="none" d="M165.401,-18C174.807,-18 185.572,-18 195.665,-18"/>
<polygon fill="none" stroke="none" points="195.855,-21.5001 205.855,-18 195.855,-14.5001 195.855,-21.5001"/>
</g>
<!-- col3 -->
<g id="node4" class="node"><title>col3</title>
<ellipse fill="none" stroke="none" cx="323" cy="-18" rx="27" ry="18"/>
<text text-anchor="middle" x="323" y="-13.8" font-family="Times,serif" font-size="14.00" fill="#fffffe">col3</text>
</g>
<!-- col2&#45;&gt;col3 -->
<g id="edge5" class="edge"><title>col2&#45;&gt;col3</title>
<path fill="none" stroke="none" d="M260.403,-18C268.393,-18 277.311,-18 285.824,-18"/>
<polygon fill="none" stroke="none" points="285.919,-21.5001 295.919,-18 285.919,-14.5001 285.919,-21.5001"/>
</g>
<!-- col4 -->
<g id="node5" class="node"><title>col4</title>
<ellipse fill="none" stroke="none" cx="413" cy="-18" rx="27" ry="18"/>
<text text-anchor="middle" x="413" y="-13.8" font-family="Times,serif" font-size="14.00" fill="#fffffe">col4</text>
</g>
<!-- col3&#45;&gt;col4 -->
<g id="edge6" class="edge"><title>col3&#45;&gt;col4</title>
<path fill="none" stroke="none" d="M350.403,-18C358.393,-18 367.311,-18 375.824,-18"/>
<polygon fill="none" stroke="none" points="375.919,-21.5001 385.919,-18 375.919,-14.5001 375.919,-21.5001"/>
</g>
<!-- col5 -->
<g id="node6" class="node"><title>col5</title>
<ellipse fill="none" stroke="none" cx="504" cy="-18" rx="27" ry="18"/>
<text text-anchor="middle" x="504" y="-13.8" font-family="Times,serif" font-size="14.00" fill="#fffffe">col5</text>
</g>
<!-- col4&#45;&gt;col5 -->
<g id="edge7" class="edge"><title>col4&#45;&gt;col5</title>
<path fill="none" stroke="none" d="M440.222,-18C448.551,-18 457.914,-18 466.816,-18"/>
<polygon fill="none" stroke="none" points="466.966,-21.5001 476.966,-18 466.966,-14.5001 466.966,-21.5001"/>
</g>
<!-- col6 -->
<g id="node7" class="node"><title>col6</title>
<ellipse fill="none" stroke="none" cx="615" cy="-18" rx="27" ry="18"/>
<text text-anchor="middle" x="615" y="-13.8" font-family="Times,serif" font-size="14.00" fill="#fffffe">col6</text>
</g>
<!-- col5&#45;&gt;col6 -->
<g id="edge8" class="edge"><title>col5&#45;&gt;col6</title>
<path fill="none" stroke="none" d="M531.108,-18C545.027,-18 562.374,-18 577.596,-18"/>
<polygon fill="none" stroke="none" points="577.727,-21.5001 587.727,-18 577.727,-14.5001 577.727,-21.5001"/>
</g>
<!-- row1start -->
<g id="node8" class="node"><title>row1start</title>
<ellipse fill="none" stroke="black" cx="35" cy="-126" rx="34.8024" ry="18"/>
<text text-anchor="middle" x="35" y="-121.8" font-family="Times,serif" font-size="14.00">feather</text>
</g>
<!-- row2start -->
<g id="node9" class="node"><title>row2start</title>
<ellipse fill="none" stroke="black" cx="35" cy="-72" rx="34.8024" ry="18"/>
<text text-anchor="middle" x="35" y="-67.8" font-family="Times,serif" font-size="14.00">feather</text>
</g>
<!-- row1start&#45;&gt;row2start -->
<g id="edge1" class="edge"><title>row1start&#45;&gt;row2start</title>
<path fill="none" stroke="none" d="M35,-107.79C35,-105.308 35,-102.826 35,-100.344"/>
<polygon fill="none" stroke="none" points="38.5001,-100.141 35,-90.1406 31.5001,-100.141 38.5001,-100.141"/>
</g>
<!-- IntelliJ -->
<g id="node12" class="node"><title>IntelliJ</title>
<polygon fill="none" stroke="black" points="531.383,-144 476.617,-144 476.617,-108 531.383,-108 531.383,-144"/>
<text text-anchor="middle" x="504" y="-121.8" font-family="Times,serif" font-size="14.00">IntelliJ</text>
</g>
<!-- row1start&#45;&gt;IntelliJ -->
<g id="edge9" class="edge"><title>row1start&#45;&gt;IntelliJ</title>
<path fill="none" stroke="black" d="M69.992,-126C109.08,-126 175.174,-126 232,-126 232,-126 232,-126 324,-126 378.228,-126 441.698,-126 476.614,-126"/>
</g>
<!-- Sublime -->
<g id="node13" class="node"><title>Sublime</title>
<polygon fill="none" stroke="black" points="169.17,-90 106.83,-90 106.83,-54 169.17,-54 169.17,-90"/>
<text text-anchor="middle" x="138" y="-67.8" font-family="Times,serif" font-size="14.00">Sublime</text>
</g>
<!-- row2start&#45;&gt;Sublime -->
<g id="edge11" class="edge"><title>row2start&#45;&gt;Sublime</title>
<path fill="none" stroke="black" d="M69.9125,-72C81.8325,-72 95.1396,-72 106.739,-72"/>
</g>
<!-- row1end -->
<g id="node10" class="node"><title>row1end</title>
<ellipse fill="none" stroke="black" cx="615" cy="-126" rx="46.8889" ry="18"/>
<text text-anchor="middle" x="615" y="-121.8" font-family="Times,serif" font-size="14.00">black hole</text>
</g>
<!-- row2end -->
<g id="node11" class="node"><title>row2end</title>
<ellipse fill="none" stroke="black" cx="615" cy="-72" rx="46.8889" ry="18"/>
<text text-anchor="middle" x="615" y="-67.8" font-family="Times,serif" font-size="14.00">black hole</text>
</g>
<!-- row1end&#45;&gt;row2end -->
<g id="edge2" class="edge"><title>row1end&#45;&gt;row2end</title>
<path fill="none" stroke="none" d="M615,-107.79C615,-105.308 615,-102.826 615,-100.344"/>
<polygon fill="none" stroke="none" points="618.5,-100.141 615,-90.1406 611.5,-100.141 618.5,-100.141"/>
</g>
<!-- IntelliJ&#45;&gt;row1end -->
<g id="edge10" class="edge"><title>IntelliJ&#45;&gt;row1end</title>
<path fill="none" stroke="black" d="M531.386,-126C542.475,-126 555.702,-126 568.287,-126"/>
</g>
<!-- Sublime&#45;&gt;row2end -->
<g id="edge12" class="edge"><title>Sublime&#45;&gt;row2end</title>
<path fill="none" stroke="black" d="M169.437,-72C205.753,-72 268.307,-72 322,-72 322,-72 322,-72 414,-72 466.778,-72 527.39,-72 567.927,-72"/>
</g>
</g>
</svg>
