<?xml version="1.0" encoding="UTF-8" standalone="no"?>
<!DOCTYPE svg PUBLIC "-//W3C//DTD SVG 1.1//EN"
 "http://www.w3.org/Graphics/SVG/1.1/DTD/svg11.dtd">
<!-- Generated by graphviz version 2.36.0 (20140111.2315)
 -->
<!-- Title: %3 Pages: 1 -->
<svg width="271pt" height="134pt"
 viewBox="0.00 0.00 271.00 134.00" xmlns="http://www.w3.org/2000/svg" xmlns:xlink="http://www.w3.org/1999/xlink">
<g id="graph0" class="graph" transform="scale(1 1) rotate(0) translate(4 130)">
<title>%3</title>
<!-- html -->
<g id="node1" class="node"><title>html</title>
<ellipse fill="none" stroke="black" cx="43" cy="-100" rx="42.4684" ry="25.4118"/>
<text text-anchor="middle" x="43" y="-102.8" font-family="Times,serif" font-size="14.00">HTML</text>
<text text-anchor="middle" x="43" y="-88.8" font-family="Times,serif" font-size="14.00">element</text>
</g>
<!-- attributes -->
<g id="node2" class="node"><title>attributes</title>
<ellipse fill="none" stroke="black" cx="43" cy="-18" rx="43.0226" ry="18"/>
<text text-anchor="middle" x="43" y="-13.8" font-family="Times,serif" font-size="14.00">attributes</text>
</g>
<!-- html&#45;&gt;attributes -->
<g id="edge1" class="edge"><title>html&#45;&gt;attributes</title>
<path fill="none" stroke="black" d="M43,-74.126C43,-65.2908 43,-55.3009 43,-46.2757"/>
<polygon fill="black" stroke="black" points="46.5001,-46.2511 43,-36.2511 39.5001,-46.2511 46.5001,-46.2511"/>
</g>
<!-- properties -->
<g id="node4" class="node"><title>properties</title>
<ellipse fill="none" stroke="black" cx="218" cy="-18" rx="45.2018" ry="18"/>
<text text-anchor="middle" x="218" y="-13.8" font-family="Times,serif" font-size="14.00">properties</text>
</g>
<!-- attributes&#45;&gt;properties -->
<g id="edge3" class="edge"><title>attributes&#45;&gt;properties</title>
<path fill="none" stroke="black" stroke-dasharray="5,2" d="M86.2584,-18C109.196,-18 137.639,-18 162.219,-18"/>
<polygon fill="black" stroke="black" points="162.49,-21.5001 172.49,-18 162.49,-14.5001 162.49,-21.5001"/>
<text text-anchor="middle" x="129.266" y="-37.8" font-family="Times,serif" font-size="14.00">initializes</text>
<text text-anchor="middle" x="129.266" y="-23.8" font-family="Times,serif" font-size="14.00">(sometimes)</text>
</g>
<!-- dom -->
<g id="node3" class="node"><title>dom</title>
<ellipse fill="none" stroke="black" cx="218" cy="-100" rx="34.1219" ry="25.4118"/>
<text text-anchor="middle" x="218" y="-102.8" font-family="Times,serif" font-size="14.00">DOM</text>
<text text-anchor="middle" x="218" y="-88.8" font-family="Times,serif" font-size="14.00">node</text>
</g>
<!-- dom&#45;&gt;properties -->
<g id="edge2" class="edge"><title>dom&#45;&gt;properties</title>
<path fill="none" stroke="black" d="M218,-74.126C218,-65.2908 218,-55.3009 218,-46.2757"/>
<polygon fill="black" stroke="black" points="221.5,-46.2511 218,-36.2511 214.5,-46.2511 221.5,-46.2511"/>
</g>
</g>
</svg>
