<?xml version="1.0" encoding="UTF-8" standalone="no"?>
<!DOCTYPE svg PUBLIC "-//W3C//DTD SVG 1.1//EN"
 "http://www.w3.org/Graphics/SVG/1.1/DTD/svg11.dtd">
<!-- Generated by graphviz version 2.36.0 (20140111.2315)
 -->
<!-- Title: %3 Pages: 1 -->
<svg width="548pt" height="126pt"
 viewBox="0.00 0.00 548.00 126.00" xmlns="http://www.w3.org/2000/svg" xmlns:xlink="http://www.w3.org/1999/xlink">
<g id="graph0" class="graph" transform="scale(1 1) rotate(0) translate(4 122)">
<title>%3</title>
<!-- inline -->
<g id="node1" class="node"><title>inline</title>
<ellipse fill="none" stroke="black" cx="63" cy="-93" rx="30.4949" ry="18"/>
<text text-anchor="middle" x="63" y="-88.8" font-family="Times,serif" font-size="14.00">inline</text>
</g>
<!-- important -->
<g id="node2" class="node"><title>important</title>
<ellipse fill="none" stroke="black" cx="224" cy="-93" rx="53.2029" ry="25.4118"/>
<text text-anchor="middle" x="224" y="-95.8" font-family="Times,serif" font-size="14.00">rule with</text>
<text text-anchor="middle" x="224" y="-81.8" font-family="Times,serif" font-size="14.00">!important</text>
</g>
<!-- inline&#45;&gt;important -->
<g id="edge1" class="edge"><title>inline&#45;&gt;important</title>
<path fill="none" stroke="black" d="M93.534,-93C112.388,-93 137.546,-93 160.67,-93"/>
<polygon fill="black" stroke="black" points="160.775,-96.5001 170.775,-93 160.775,-89.5001 160.775,-96.5001"/>
</g>
<!-- inlinefoo -->
<g id="node5" class="node"><title>inlinefoo</title>
<polygon fill="none" stroke="black" points="125.936,-57 0.0644366,-57 0.0644366,-21 125.936,-21 125.936,-57"/>
<text text-anchor="middle" x="63" y="-41.8" font-family="Times,serif" font-size="14.00">Trumps everything.</text>
<text text-anchor="middle" x="63" y="-27.8" font-family="Times,serif" font-size="14.00">Be careful!</text>
</g>
<!-- inline&#45;&gt;inlinefoo -->
<g id="edge4" class="edge"><title>inline&#45;&gt;inlinefoo</title>
<path fill="none" stroke="black" d="M63,-74.7902C63,-68.907 63,-63.0238 63,-57.1406"/>
</g>
<!-- styles -->
<g id="node3" class="node"><title>styles</title>
<ellipse fill="none" stroke="black" cx="370" cy="-93" rx="30.0035" ry="18"/>
<text text-anchor="middle" x="370" y="-88.8" font-family="Times,serif" font-size="14.00">styles</text>
</g>
<!-- important&#45;&gt;styles -->
<g id="edge2" class="edge"><title>important&#45;&gt;styles</title>
<path fill="none" stroke="black" d="M277.395,-93C294.546,-93 313.304,-93 329.354,-93"/>
<polygon fill="black" stroke="black" points="329.466,-96.5001 339.466,-93 329.466,-89.5001 329.466,-96.5001"/>
</g>
<!-- importantfoo -->
<g id="node6" class="node"><title>importantfoo</title>
<polygon fill="none" stroke="black" points="285.407,-50 162.593,-50 162.593,-14 285.407,-14 285.407,-50"/>
<text text-anchor="middle" x="224" y="-34.8" font-family="Times,serif" font-size="14.00">Considered a hack.</text>
<text text-anchor="middle" x="224" y="-20.8" font-family="Times,serif" font-size="14.00">Use as last resort</text>
</g>
<!-- important&#45;&gt;importantfoo -->
<g id="edge5" class="edge"><title>important&#45;&gt;importantfoo</title>
<path fill="none" stroke="black" d="M224,-67.5337C224,-61.7256 224,-55.9175 224,-50.1094"/>
</g>
<!-- defaults -->
<g id="node4" class="node"><title>defaults</title>
<ellipse fill="none" stroke="black" cx="497" cy="-93" rx="43.4047" ry="25.4118"/>
<text text-anchor="middle" x="497" y="-95.8" font-family="Times,serif" font-size="14.00">browser</text>
<text text-anchor="middle" x="497" y="-81.8" font-family="Times,serif" font-size="14.00">defaults</text>
</g>
<!-- styles&#45;&gt;defaults -->
<g id="edge3" class="edge"><title>styles&#45;&gt;defaults</title>
<path fill="none" stroke="black" d="M400.307,-93C413.206,-93 428.762,-93 443.547,-93"/>
<polygon fill="black" stroke="black" points="443.618,-96.5001 453.618,-93 443.618,-89.5001 443.618,-96.5001"/>
</g>
<!-- stylesfoo -->
<g id="node7" class="node"><title>stylesfoo</title>
<polygon fill="none" stroke="black" points="417.838,-57 322.162,-57 322.162,-7 417.838,-7 417.838,-57"/>
<text text-anchor="middle" x="370" y="-41.8" font-family="Times,serif" font-size="14.00">Sorted first by</text>
<text text-anchor="middle" x="370" y="-27.8" font-family="Times,serif" font-size="14.00">specificity,</text>
<text text-anchor="middle" x="370" y="-13.8" font-family="Times,serif" font-size="14.00">then by order</text>
</g>
<!-- styles&#45;&gt;stylesfoo -->
<g id="edge6" class="edge"><title>styles&#45;&gt;stylesfoo</title>
<path fill="none" stroke="black" d="M370,-74.8497C370,-68.9857 370,-63.1218 370,-57.2578"/>
</g>
<!-- defaultsfoo -->
<g id="node8" class="node"><title>defaultsfoo</title>
<polygon fill="none" stroke="black" points="539.038,-50 454.962,-50 454.962,-0 539.038,-0 539.038,-50"/>
<text text-anchor="middle" x="497" y="-34.8" font-family="Times,serif" font-size="14.00">Often reset</text>
<text text-anchor="middle" x="497" y="-20.8" font-family="Times,serif" font-size="14.00">so we have</text>
<text text-anchor="middle" x="497" y="-6.8" font-family="Times,serif" font-size="14.00">total control</text>
</g>
<!-- defaults&#45;&gt;defaultsfoo -->
<g id="edge7" class="edge"><title>defaults&#45;&gt;defaultsfoo</title>
<path fill="none" stroke="black" d="M497,-67.6079C497,-61.8167 497,-56.0256 497,-50.2344"/>
</g>
</g>
</svg>
